/* XPM */
static char * page_xpm[] = {
"128 128 23 1",
" 	c None",
".	c #5C889D",
"+	c #5C869E",
"@	c #5C889C",
"#	c #5E889E",
"$	c #5E879D",
"%	c #5D889C",
"&	c #5E869D",
"*	c #5E889C",
"=	c #5E879C",
"-	c #5D879D",
";	c #5E869C",
">	c #5C869C",
",	c #5E889D",
"'	c #5C889E",
")	c #5E879E",
"!	c #5D869C",
"~	c #5E869E",
"{	c #5D889D",
"]	c #5D889E",
"^	c #5D869E",
"/	c #5D879E",
"(	c #5C879C",
"                                                              .+@+                                                              ",
"                                                            #######.                                                            ",
"                                                           #########+                                                           ",
"                                                           ####  $###                                                           ",
"                                                          %##&    *##$                                                          ",
"                                                          =##      ##%                                                          ",
"                                               -@############      ############;                                                ",
"                                               ##############>    ;##############                                               ",
"                                              #################*,'###############*                                              ",
"                                              ####################################                                              ",
"                        ##################)   ####################################   @##################                        ",
"                      ####################)   ####################################   @###################!                      ",
"                     #####################)   ####################################   @####################@                     ",
"                    ######################)   ####################################   @#####################~                    ",
"                    ######################)   ####################################   @######################                    ",
"                   ;######################)   ####################################   @######################{                   ",
"                   '######################)   ####################################   @#######################                   ",
"                   #######################)   ####################################   @#######################                   ",
"                   #########;                 ####################################                 ~#########                   ",
"                   ########+                  ;##################################+                  '########                   ",
"                   ########)                                                                        '########                   ",
"                   ########)                                                                        {########                   ",
"                   ########)                                                                        {########                   ",
"                   ########)                                                                        {########                   ",
"                   ########)                                                                        {########                   ",
"                   ########)                                                                        {########                   ",
"                   ########)                                                                        {########                   ",
"                   ########)                                                                        {########                   ",
"                   ########)                                                                        {########                   ",
"                   ########)                                                                        {########                   ",
"                   ########)                                                                        {########                   ",
"                   ########)                                                                        {########                   ",
"                   ########)        )$$$$$$$$$$$$$$$$$$         $$$$$$$$$$$$$$$$$$$$$$$$$$$,        {########                   ",
"                   ########)        ####################       #############################*       {########                   ",
"                   ########)        ####################       #############################]       {########                   ",
"                   ########)        ####################                                            {########                   ",
"                   ########)        ####################                                            {########                   ",
"                   ########)        ####################                                            {########                   ",
"                   ########)        ####################                                            {########                   ",
"                   ########)        ####################                                            {########                   ",
"                   ########)        ####################                                            {########                   ",
"                   ########)        ####################       *~~~~~~~~~~~~~~~~~~~~~~~~~~~#        {########                   ",
"                   ########)        ####################       #############################&       {########                   ",
"                   ########)        ####################       '#############################       {########                   ",
"                   ########)        ####################                                            {########                   ",
"                   ########)        ####################                                            {########                   ",
"                   ########)        ####################                                            {########                   ",
"                   ########)        ####################                                            {########                   ",
"                   ########)        ####################                                            {########                   ",
"                   ########)        ####################                                            {########                   ",
"                   ########)        ####################       ^#############################       {########                   ",
"                   ########)        ####################       ##############################       {########                   ",
"                   ########)        ,##################!       ~###########################;        {########                   ",
"                   ########)                                                                        {########                   ",
"                   ########)                                                                        {########                   ",
"                   ########)                                                                        {########                   ",
"                   ########)                                                                        {########                   ",
"                   ########)                                                                        {########                   ",
"                   ########)         ######################################################)        {########                   ",
"                   ########)        ########################################################,       {########                   ",
"                   ########)        ########################################################*       {########                   ",
"                   ########)         ))))))))))))))))))))))))))))))))))))))))))))))))))))))-        {########                   ",
"                   ########)                                                                        {########                   ",
"                   ########)                                                                        {########                   ",
"                   ########)                                                                        {########                   ",
"                   ########)                                                                        {########                   ",
"                   ########)                                                                        {########                   ",
"                   ########)        {######################################################;        {########                   ",
"                   ########)        ########################################################'       {########                   ",
"                   ########)        ########################################################/       {########                   ",
"                   ########)                                                                        {########                   ",
"                   ########)                                                                        {########                   ",
"                   ########)                                                                        {########                   ",
"                   ########)                                                                        {########                   ",
"                   ########)                                                                        {########                   ",
"                   ########)                                                                        {########                   ",
"                   ########)        (######################################################'        {########                   ",
"                   ########)        #########################################################       {########                   ",
"                   ########)        ;#######################################################        {########                   ",
"                   ########)                                                                        {########                   ",
"                   ########)                                                                        {########                   ",
"                   ########)                                                                        {########                   ",
"                   ########)                                                                        {########                   ",
"                   ########)                                                                        {########                   ",
"                   ########)                                                                        {########                   ",
"                   ########)        ############################                                    {########                   ",
"                   ########)        ############################                                    {########                   ",
"                   ########)        ;~~~~~~~~~~~~~~~~~~~~~~~~~~,                                    {########                   ",
"                   ########)                                                                        {########                   ",
"                   ########)                                                                        {########                   ",
"                   ########)                                                                        {########                   ",
"                   ########)                                                                        {########                   ",
"                   ########)                                                                        {########                   ",
"                   ########)                                                                        {########                   ",
"                   ########)                                                                        {########                   ",
"                   ########)                                                                        )########                   ",
"                   ########)                                                  /'###############^    (########                   ",
"                   ########)                                                 $################^    (#########                   ",
"                   ########)                                                 ,###############^    (##########                   ",
"                   ########)                                                 )##############^    (###########                   ",
"                   ########)                                                 )#############^    (############                   ",
"                   ########)                                                 )############^    (#############                   ",
"                   ########)                                                 )###########^    (##############                   ",
"                   ########)                                                 )##########^    (###############                   ",
"                   ########)                                                 )#########^    (################                   ",
"                   ########)                                                 )########^    (#################                   ",
"                   ########)                                                 )#######^    (##################                   ",
"                   ########)                                                 )######^    (###################                   ",
"                   ########)                                                 )#####^    (####################                   ",
"                   ########)                                                 )####^    (#####################                   ",
"                   ########)                                                 )###^    (######################                   ",
"                   ########)                                                 )##^    (#######################                   ",
"                   ########)                                                 )#^    (########################                   ",
"                   ########)                                                 )^    (#########################                   ",
"                   ########)                                                 #    (##########################                   ",
"                   ########)                                                     (###########################                   ",
"                   ########{                                                    (############################                   ",
"                   #########                                                   (#############################                   ",
"                   #########)                                                 (##############################                   ",
"                   ##########~;..............................................*###############################                   ",
"                   ##########################################################################################                   ",
"                   ~#########################################################################################                   ",
"                   ^########################################################################################{                   ",
"                    +######################################################################################;                    ",
"                     ######################################################################################                     ",
"                     $####################################################################################{                     ",
"                       +################################################################################~                       ",
"                         #;+;;;;;;;;;;;;;;;;;;;;;;;;;;;;;;;;;;;;;;;;;;;;;;;;;;;;;;;;;;;;;;;;;;;;;;;;*#&                         "};
